<svg xmlns="http://www.w3.org/2000/svg" xmlns:xlink="http://www.w3.org/1999/xlink" width="500" zoomAndPan="magnify" viewBox="0 0 375 374.999991" height="500" preserveAspectRatio="xMidYMid meet" version="1.0"><defs><clipPath id="454fe59c77"><path d="M 30.402344 60 L 344.652344 60 L 344.652344 314.859375 L 30.402344 314.859375 Z M 30.402344 60 " clip-rule="nonzero"/></clipPath><clipPath id="1cade34a21"><path d="M 306.703125 200.285156 C 306.703125 189.796875 315.199219 181.359375 325.703125 181.359375 C 336.203125 181.359375 344.652344 189.847656 344.652344 200.285156 C 344.652344 210.773438 336.15625 219.210938 325.703125 219.210938 C 322.429688 219.210938 319.304688 218.382812 316.617188 216.917969 L 302.941406 237.015625 C 306.164062 239.84375 308.214844 243.992188 308.214844 248.675781 C 308.214844 257.210938 301.28125 264.136719 292.734375 264.136719 C 284.1875 264.136719 277.25 257.210938 277.25 248.675781 C 277.25 242.820312 280.523438 237.699219 285.359375 235.113281 L 281.5 225.359375 C 280.621094 225.550781 279.691406 225.648438 278.765625 225.648438 C 271.976562 225.648438 266.503906 220.136719 266.503906 213.40625 C 266.503906 206.625 272.023438 201.113281 278.765625 201.113281 C 279.886719 201.113281 281.011719 201.261719 282.039062 201.554688 L 290 183.894531 C 288.042969 182.382812 286.773438 180.042969 286.773438 177.40625 C 286.773438 172.871094 290.4375 169.210938 294.980469 169.210938 C 296.984375 169.210938 298.789062 169.894531 300.207031 171.113281 L 314.46875 160.285156 C 313.441406 158.433594 312.855469 156.238281 312.855469 153.945312 C 312.855469 150.140625 314.515625 146.675781 317.105469 144.285156 L 308.3125 131.359375 C 306.652344 132.140625 304.796875 132.578125 302.84375 132.578125 C 298.253906 132.578125 294.246094 130.140625 292.050781 126.53125 L 278.667969 132.140625 C 278.667969 132.335938 278.714844 132.53125 278.714844 132.675781 C 278.714844 135.75 276.46875 138.285156 273.539062 138.773438 L 271.730469 151.75 C 276.226562 153.164062 279.449219 157.359375 279.449219 162.285156 C 279.449219 168.382812 274.464844 173.359375 268.363281 173.359375 C 264.257812 173.359375 260.691406 171.113281 258.738281 167.796875 L 242.867188 173.652344 C 242.867188 173.699219 242.867188 173.75 242.867188 173.847656 C 242.867188 177.113281 240.226562 179.75 236.957031 179.75 C 236.613281 179.75 236.222656 179.699219 235.882812 179.652344 L 227.824219 194.285156 C 228.800781 195.164062 229.628906 196.238281 230.167969 197.457031 L 252.4375 192.773438 C 252.78125 189.847656 255.273438 187.554688 258.300781 187.554688 C 261.574219 187.554688 264.210938 190.1875 264.210938 193.457031 C 264.210938 196.480469 261.914062 198.96875 258.984375 199.308594 L 252.4375 230.527344 C 259.375 232.773438 264.355469 239.257812 264.355469 246.917969 C 264.355469 256.429688 256.640625 264.1875 247.066406 264.1875 C 246.773438 264.1875 246.480469 264.1875 246.1875 264.1875 L 243.597656 280.183594 C 245.941406 281.257812 247.605469 283.648438 247.605469 286.429688 C 247.605469 289.550781 245.550781 292.136719 242.71875 293.015625 L 242.964844 305.113281 C 244.769531 305.792969 246.089844 307.597656 246.089844 309.648438 C 246.089844 312.332031 243.890625 314.527344 241.207031 314.527344 C 238.519531 314.527344 236.320312 312.332031 236.320312 309.648438 C 236.320312 309.160156 236.417969 308.671875 236.566406 308.183594 L 228.019531 301.0625 C 226.945312 301.792969 225.625 302.234375 224.160156 302.234375 C 220.398438 302.234375 217.371094 299.210938 217.371094 295.453125 C 217.371094 292.769531 218.933594 290.476562 221.179688 289.355469 L 219.714844 281.257812 C 219.617188 281.257812 219.46875 281.257812 219.371094 281.257812 C 212.535156 281.257812 206.96875 275.699219 206.96875 268.867188 C 206.96875 262.039062 212.535156 256.480469 219.371094 256.480469 C 222.644531 256.480469 225.574219 257.746094 227.773438 259.796875 L 232.511719 256.039062 C 230.800781 253.355469 229.824219 250.234375 229.824219 246.820312 C 229.824219 243.550781 230.753906 240.480469 232.363281 237.84375 L 220.253906 228.578125 C 219.324219 229.210938 218.199219 229.601562 216.980469 229.601562 C 215.660156 229.601562 214.441406 229.164062 213.464844 228.429688 L 205.792969 233.746094 C 207.164062 236.234375 207.894531 239.066406 207.894531 242.089844 C 207.894531 251.746094 200.082031 259.550781 190.410156 259.550781 C 182.203125 259.550781 175.367188 253.941406 173.460938 246.332031 L 160.371094 248.136719 C 160.226562 254.332031 155.144531 259.308594 148.894531 259.308594 C 142.542969 259.308594 137.414062 254.1875 137.414062 247.84375 C 137.414062 241.503906 142.542969 236.382812 148.894531 236.382812 C 150.066406 236.382812 151.1875 236.578125 152.214844 236.871094 L 166.183594 208.625 C 162.617188 206.234375 160.175781 202.332031 159.738281 197.847656 L 148.210938 197.457031 C 147.378906 199.601562 145.328125 201.113281 142.886719 201.113281 C 142.25 201.113281 141.664062 201.015625 141.078125 200.820312 L 131.847656 212.773438 C 134.730469 215.601562 136.488281 219.503906 136.488281 223.84375 C 136.488281 232.429688 129.503906 239.40625 120.90625 239.40625 C 113.679688 239.40625 107.574219 234.429688 105.816406 227.746094 L 95.117188 229.164062 C 94.921875 235.257812 89.890625 240.1875 83.738281 240.1875 C 77.4375 240.1875 72.359375 235.113281 72.359375 228.820312 C 72.359375 222.871094 76.949219 217.992188 82.808594 217.503906 L 83.835938 205.015625 C 81.785156 204.136719 80.367188 202.089844 80.367188 199.699219 C 80.367188 196.527344 82.957031 193.894531 86.179688 193.894531 C 86.914062 193.894531 87.546875 194.042969 88.183594 194.238281 L 110.015625 167.40625 C 109.476562 166.53125 109.136719 165.457031 109.136719 164.335938 C 109.136719 162.773438 109.769531 161.359375 110.75 160.335938 L 107.378906 153.796875 C 105.667969 154.433594 103.863281 154.773438 101.957031 154.773438 C 99.222656 154.773438 96.632812 154.042969 94.433594 152.824219 L 81.296875 171.015625 C 82.664062 172.53125 83.496094 174.578125 83.496094 176.824219 C 83.496094 181.601562 79.585938 185.503906 74.800781 185.503906 C 73.824219 185.503906 72.847656 185.359375 71.96875 185.015625 L 58.242188 207.359375 C 61.367188 209.894531 63.324219 213.75 63.324219 218.089844 C 63.324219 225.746094 57.121094 231.941406 49.453125 231.941406 C 41.78125 231.941406 35.582031 225.746094 35.582031 218.089844 C 35.582031 211.847656 39.730469 206.578125 45.398438 204.820312 L 44.324219 198.238281 C 44.226562 198.238281 44.175781 198.238281 44.078125 198.238281 C 36.949219 198.238281 31.183594 192.480469 31.183594 185.359375 C 31.183594 178.285156 36.898438 172.53125 43.980469 172.480469 L 44.761719 166.773438 C 36.507812 164.773438 30.355469 157.3125 30.355469 148.433594 C 30.355469 138.042969 38.804688 129.605469 49.207031 129.605469 C 57.851562 129.605469 65.179688 135.410156 67.375 143.359375 L 86.375 139.992188 C 86.375 139.703125 86.375 139.457031 86.375 139.164062 C 86.375 136.53125 87.058594 134.042969 88.183594 131.847656 L 74.164062 122.042969 C 72.601562 123.507812 70.503906 124.382812 68.207031 124.382812 C 63.371094 124.382812 59.414062 120.433594 59.414062 115.605469 C 59.414062 110.773438 63.371094 106.824219 68.207031 106.824219 C 73.042969 106.824219 77 110.773438 77 115.605469 C 77 116.824219 76.753906 117.945312 76.3125 118.96875 L 90.332031 128.773438 C 92.335938 126.53125 95.019531 124.871094 98 124.09375 L 97.953125 109.898438 C 92.675781 109.019531 88.671875 104.484375 88.671875 98.972656 C 88.671875 92.875 93.652344 87.898438 99.757812 87.898438 C 103.371094 87.898438 106.546875 89.605469 108.550781 92.238281 L 126.28125 82.972656 C 125.839844 81.652344 125.597656 80.289062 125.597656 78.824219 C 125.597656 71.847656 131.261719 66.140625 138.296875 66.140625 C 145.28125 66.140625 150.992188 71.800781 150.992188 78.824219 C 150.992188 83.457031 148.503906 87.554688 144.742188 89.75 L 150.601562 104.191406 C 151.53125 103.996094 152.460938 103.847656 153.484375 103.847656 C 155.78125 103.847656 157.976562 104.484375 159.835938 105.605469 L 173.121094 89.507812 C 170.089844 86.386719 168.1875 82.140625 168.1875 77.460938 C 168.1875 67.945312 175.902344 60.191406 185.476562 60.191406 C 195 60.191406 202.765625 67.898438 202.765625 77.460938 C 202.765625 81.703125 201.203125 85.605469 198.664062 88.582031 L 211.851562 102.433594 C 212.632812 102.042969 213.511719 101.847656 214.441406 101.847656 C 214.683594 101.847656 214.929688 101.847656 215.125 101.898438 L 222.15625 86.726562 C 219.273438 84.726562 217.371094 81.410156 217.371094 77.605469 C 217.371094 71.507812 222.351562 66.53125 228.457031 66.53125 C 234.5625 66.53125 239.542969 71.507812 239.542969 77.605469 C 239.542969 78.972656 239.300781 80.289062 238.859375 81.460938 L 250.046875 87.945312 C 252.828125 84.289062 257.273438 81.898438 262.207031 81.898438 C 270.65625 81.898438 277.496094 88.726562 277.496094 97.164062 C 277.496094 99.214844 277.105469 101.164062 276.371094 102.921875 L 292.878906 112.140625 C 295.175781 109.164062 298.789062 107.214844 302.894531 107.214844 C 309.878906 107.214844 315.542969 112.871094 315.542969 119.847656 C 315.542969 123.507812 313.980469 126.824219 311.488281 129.117188 L 320.28125 142.042969 C 321.988281 141.214844 323.945312 140.726562 325.996094 140.726562 C 333.222656 140.726562 339.085938 146.578125 339.085938 153.796875 C 339.085938 161.019531 333.222656 166.871094 325.996094 166.871094 C 322.429688 166.871094 319.15625 165.457031 316.8125 163.117188 L 302.550781 173.945312 C 302.992188 174.96875 303.234375 176.089844 303.234375 177.261719 C 303.234375 181.796875 299.570312 185.457031 295.027344 185.457031 C 294.492188 185.457031 293.953125 185.40625 293.464844 185.308594 L 285.503906 202.96875 C 288.875 205.164062 291.121094 208.96875 291.121094 213.261719 C 291.121094 217.746094 288.679688 221.699219 285.066406 223.84375 L 288.925781 233.601562 C 290.195312 233.261719 291.464844 233.113281 292.832031 233.113281 C 295.371094 233.113281 297.8125 233.746094 299.914062 234.820312 L 313.589844 214.722656 C 309.4375 211.261719 306.800781 206.042969 306.800781 200.1875 Z M 101.761719 123.703125 L 101.710938 109.945312 C 106.9375 109.066406 110.894531 104.484375 110.894531 99.019531 C 110.894531 97.847656 110.699219 96.679688 110.355469 95.605469 L 128.085938 86.335938 C 130.382812 89.507812 134.144531 91.554688 138.34375 91.554688 C 139.371094 91.554688 140.347656 91.457031 141.324219 91.214844 L 147.183594 105.652344 C 143.570312 107.800781 141.128906 111.75 141.128906 116.289062 C 141.128906 121.75 144.695312 126.382812 149.625 128.042969 L 146.988281 143.652344 C 146.648438 143.652344 146.304688 143.605469 145.914062 143.605469 C 136.242188 143.605469 128.429688 151.410156 128.429688 161.066406 C 128.429688 170.726562 136.242188 178.53125 145.914062 178.53125 C 155.097656 178.53125 162.617188 171.457031 163.351562 162.480469 L 173.460938 162.1875 C 174.292969 164.382812 176.390625 165.945312 178.882812 165.945312 C 180.640625 165.945312 182.203125 165.164062 183.277344 163.894531 L 196.515625 169.164062 C 196.367188 169.945312 196.269531 170.726562 196.269531 171.503906 C 196.269531 177.652344 201.300781 182.675781 207.457031 182.675781 C 213.609375 182.675781 218.640625 177.652344 218.640625 171.503906 C 218.640625 168.824219 217.664062 166.335938 216.101562 164.382812 L 230.117188 148.1875 C 232.558594 149.796875 235.492188 150.773438 238.617188 150.773438 C 247.066406 150.773438 253.90625 143.945312 253.90625 135.507812 C 253.90625 127.066406 247.066406 120.238281 238.617188 120.238281 C 235.441406 120.238281 232.460938 121.214844 230.019531 122.871094 L 219.566406 110.921875 C 220.105469 110.042969 220.398438 108.96875 220.398438 107.847656 C 220.398438 106.140625 219.664062 104.582031 218.492188 103.457031 L 225.476562 88.289062 C 226.40625 88.53125 227.382812 88.679688 228.359375 88.679688 C 231.777344 88.679688 234.855469 87.117188 236.859375 84.679688 L 248.042969 91.167969 C 247.261719 93.019531 246.820312 95.019531 246.820312 97.164062 C 246.820312 105.605469 253.660156 112.433594 262.109375 112.433594 C 262.941406 112.433594 263.769531 112.386719 264.550781 112.238281 L 268.949219 127.410156 C 267.285156 128.53125 266.210938 130.382812 266.210938 132.53125 C 266.210938 135.019531 267.679688 137.117188 269.730469 138.140625 L 267.921875 151.117188 C 261.964844 151.3125 257.175781 156.1875 257.175781 162.1875 C 257.175781 162.871094 257.226562 163.554688 257.371094 164.238281 L 241.5 170.089844 C 240.425781 168.726562 238.761719 167.894531 236.90625 167.894531 C 233.636719 167.894531 230.996094 170.53125 230.996094 173.796875 C 230.996094 175.359375 231.582031 176.726562 232.558594 177.796875 L 224.5 192.429688 C 223.671875 192.1875 222.792969 192.042969 221.914062 192.042969 C 216.929688 192.042969 212.925781 196.042969 212.925781 201.015625 C 212.925781 205.992188 216.929688 209.992188 221.914062 209.992188 C 226.894531 209.992188 230.898438 205.992188 230.898438 201.015625 L 253.171875 196.285156 C 253.710938 197.164062 254.394531 197.894531 255.273438 198.382812 L 248.726562 229.601562 C 248.191406 229.550781 247.605469 229.503906 247.019531 229.503906 C 242.132812 229.503906 237.6875 231.550781 234.515625 234.820312 L 222.402344 225.550781 C 222.597656 224.96875 222.742188 224.285156 222.742188 223.648438 C 222.742188 220.382812 220.105469 217.746094 216.832031 217.746094 C 213.5625 217.746094 210.921875 220.382812 210.921875 223.648438 C 210.921875 224.234375 211.019531 224.773438 211.167969 225.308594 L 203.5 230.625 C 200.277344 226.917969 195.539062 224.578125 190.261719 224.578125 C 180.59375 224.578125 172.777344 232.382812 172.777344 242.039062 C 172.777344 242.234375 172.777344 242.429688 172.777344 242.578125 L 159.6875 244.382812 C 158.957031 241.992188 157.390625 239.894531 155.390625 238.480469 L 169.359375 210.234375 C 170.824219 210.722656 172.4375 211.015625 174.097656 211.015625 C 182.15625 211.015625 188.699219 204.480469 188.699219 196.429688 C 188.699219 188.382812 182.15625 181.894531 174.097656 181.894531 C 166.867188 181.894531 160.859375 187.164062 159.6875 194.089844 L 148.160156 193.699219 C 147.429688 191.359375 145.28125 189.699219 142.738281 189.699219 C 139.613281 189.699219 137.023438 192.238281 137.023438 195.40625 C 137.023438 196.578125 137.367188 197.601562 137.953125 198.527344 L 128.722656 210.480469 C 126.378906 209.066406 123.640625 208.285156 120.761719 208.285156 C 112.164062 208.285156 105.179688 215.261719 105.179688 223.84375 C 105.179688 223.894531 105.179688 223.992188 105.179688 224.039062 L 94.484375 225.457031 C 93.3125 221.699219 90.234375 218.722656 86.375 217.746094 L 87.402344 205.261719 C 89.941406 204.625 91.796875 202.332031 91.796875 199.652344 C 91.796875 198.527344 91.457031 197.457031 90.917969 196.578125 L 112.75 169.75 C 113.386719 169.992188 114.070312 170.089844 114.753906 170.089844 C 117.976562 170.089844 120.566406 167.503906 120.566406 164.285156 C 120.566406 161.117188 117.976562 158.480469 114.753906 158.480469 C 114.460938 158.480469 114.167969 158.480469 113.921875 158.53125 L 110.554688 151.992188 C 114.65625 149.214844 117.390625 144.480469 117.390625 139.117188 C 117.390625 130.53125 110.40625 123.554688 101.808594 123.554688 C 101.710938 123.554688 101.664062 123.554688 101.613281 123.554688 Z M 150.652344 144.285156 L 153.289062 128.675781 C 153.339844 128.675781 153.4375 128.675781 153.484375 128.675781 C 157.976562 128.675781 161.886719 126.285156 164.082031 122.726562 L 182.15625 130.1875 C 181.910156 131.214844 181.765625 132.238281 181.765625 133.359375 C 181.765625 140.480469 187.527344 146.238281 194.660156 146.238281 C 201.789062 146.238281 207.554688 140.480469 207.554688 133.359375 C 207.554688 129.898438 206.1875 126.773438 203.988281 124.433594 L 212.4375 113.554688 C 213.074219 113.800781 213.757812 113.898438 214.441406 113.898438 C 215.269531 113.898438 216.050781 113.75 216.785156 113.410156 L 227.238281 125.359375 C 224.792969 128.042969 223.328125 131.652344 223.328125 135.554688 C 223.328125 139.507812 224.84375 143.066406 227.285156 145.796875 L 213.269531 161.992188 C 211.558594 160.96875 209.605469 160.382812 207.457031 160.382812 C 203.402344 160.382812 199.886719 162.53125 197.882812 165.75 L 184.644531 160.480469 C 184.644531 160.382812 184.644531 160.285156 184.644531 160.1875 C 184.644531 156.96875 182.058594 154.382812 178.835938 154.382812 C 176.246094 154.382812 174.046875 156.089844 173.316406 158.480469 L 163.203125 158.773438 C 162.277344 151.796875 157.246094 146.1875 150.601562 144.285156 Z M 195.929688 91.214844 L 209.117188 105.066406 C 208.675781 105.898438 208.382812 106.871094 208.382812 107.898438 C 208.382812 109.117188 208.773438 110.289062 209.410156 111.261719 L 200.960938 122.140625 C 199.101562 121.066406 196.90625 120.480469 194.609375 120.480469 C 189.921875 120.480469 185.820312 123.019531 183.570312 126.726562 L 165.5 119.214844 C 165.746094 118.289062 165.84375 117.261719 165.84375 116.238281 C 165.84375 113.066406 164.621094 110.191406 162.667969 107.996094 L 175.953125 91.898438 C 178.6875 93.703125 181.910156 94.726562 185.425781 94.726562 C 189.382812 94.726562 193 93.410156 195.929688 91.167969 Z M 272.5625 126.480469 L 268.167969 111.261719 C 270.707031 110.191406 272.855469 108.433594 274.46875 106.238281 L 290.976562 115.457031 C 290.4375 116.824219 290.144531 118.335938 290.144531 119.898438 C 290.144531 120.96875 290.292969 121.996094 290.535156 123.019531 L 277.152344 128.628906 C 276.03125 127.3125 274.417969 126.480469 272.5625 126.433594 Z M 242.574219 263.503906 L 239.984375 279.503906 C 236.566406 279.894531 233.878906 282.820312 233.878906 286.332031 C 233.878906 289.550781 236.078125 292.234375 239.054688 293.015625 L 239.300781 305.113281 C 239.203125 305.160156 239.054688 305.210938 238.957031 305.257812 L 230.410156 298.136719 C 230.800781 297.308594 230.996094 296.378906 230.996094 295.40625 C 230.996094 291.890625 228.3125 289.015625 224.890625 288.671875 L 223.425781 280.574219 C 228.3125 278.917969 231.828125 274.28125 231.828125 268.867188 C 231.828125 266.625 231.242188 264.527344 230.167969 262.722656 L 234.90625 258.964844 C 237.003906 261.0625 239.640625 262.671875 242.621094 263.453125 Z M 91.40625 150.675781 L 78.269531 168.871094 C 77.195312 168.433594 76.019531 168.140625 74.800781 168.140625 C 70.015625 168.140625 66.105469 172.042969 66.105469 176.824219 C 66.105469 179.261719 67.132812 181.503906 68.792969 183.066406 L 55.066406 205.40625 C 53.359375 204.625 51.453125 204.234375 49.453125 204.234375 C 49.304688 204.234375 49.207031 204.234375 49.0625 204.234375 L 47.984375 197.652344 C 53.210938 195.992188 56.972656 191.113281 56.972656 185.40625 C 56.972656 179.554688 53.066406 174.628906 47.691406 173.066406 L 48.472656 167.359375 C 48.71875 167.359375 48.964844 167.359375 49.257812 167.359375 C 59.660156 167.359375 68.109375 158.921875 68.109375 148.53125 C 68.109375 148.042969 68.109375 147.605469 68.058594 147.117188 L 87.058594 143.796875 C 87.890625 146.480469 89.402344 148.871094 91.40625 150.726562 Z M 105.667969 188.625 C 105.667969 182.53125 110.652344 177.554688 116.753906 177.554688 C 122.859375 177.554688 127.84375 182.53125 127.84375 188.625 C 127.84375 194.722656 122.859375 199.699219 116.753906 199.699219 C 110.652344 199.699219 105.667969 194.722656 105.667969 188.625 Z M 117.539062 114.335938 C 117.539062 111.117188 120.125 108.53125 123.347656 108.53125 C 126.574219 108.53125 129.160156 111.117188 129.160156 114.335938 C 129.160156 117.507812 126.574219 120.140625 123.347656 120.140625 C 120.175781 120.140625 117.539062 117.554688 117.539062 114.335938 Z M 117.539062 114.335938 " clip-rule="evenodd"/></clipPath><linearGradient x1="39.985145" gradientTransform="matrix(4.884209, 0, 0, 4.877918, 30.402912, 60.240049)" y1="-0.154473" x2="39.673595" gradientUnits="userSpaceOnUse" y2="52.365342" id="ce3a6537b0"><stop stop-opacity="1" stop-color="rgb(44.699097%, 3.49884%, 71.798706%)" offset="0"/><stop stop-opacity="1" stop-color="rgb(44.699097%, 3.49884%, 71.798706%)" offset="0.00726688"/><stop stop-opacity="1" stop-color="rgb(44.699097%, 3.49884%, 71.798706%)" offset="0.0625"/><stop stop-opacity="1" stop-color="rgb(44.699097%, 3.49884%, 71.798706%)" offset="0.09375"/><stop stop-opacity="1" stop-color="rgb(44.699097%, 3.49884%, 71.798706%)" offset="0.109375"/><stop stop-opacity="1" stop-color="rgb(44.676208%, 3.721619%, 71.847534%)" offset="0.113281"/><stop stop-opacity="1" stop-color="rgb(44.65332%, 3.944397%, 71.896362%)" offset="0.117188"/><stop stop-opacity="1" stop-color="rgb(44.613647%, 4.3396%, 71.981812%)" offset="0.121094"/><stop stop-opacity="1" stop-color="rgb(44.573975%, 4.736328%, 72.068787%)" offset="0.125"/><stop stop-opacity="1" stop-color="rgb(44.532776%, 5.133057%, 72.154236%)" offset="0.128906"/><stop stop-opacity="1" stop-color="rgb(44.493103%, 5.529785%, 72.239685%)" offset="0.132812"/><stop stop-opacity="1" stop-color="rgb(44.451904%, 5.926514%, 72.325134%)" offset="0.136719"/><stop stop-opacity="1" stop-color="rgb(44.412231%, 6.323242%, 72.412109%)" offset="0.140625"/><stop stop-opacity="1" stop-color="rgb(44.371033%, 6.718445%, 72.497559%)" offset="0.144531"/><stop stop-opacity="1" stop-color="rgb(44.33136%, 7.115173%, 72.584534%)" offset="0.148438"/><stop stop-opacity="1" stop-color="rgb(44.291687%, 7.511902%, 72.669983%)" offset="0.152344"/><stop stop-opacity="1" stop-color="rgb(44.252014%, 7.90863%, 72.756958%)" offset="0.15625"/><stop stop-opacity="1" stop-color="rgb(44.210815%, 8.305359%, 72.842407%)" offset="0.160156"/><stop stop-opacity="1" stop-color="rgb(44.171143%, 8.702087%, 72.929382%)" offset="0.164062"/><stop stop-opacity="1" stop-color="rgb(44.129944%, 9.09729%, 73.014832%)" offset="0.167969"/><stop stop-opacity="1" stop-color="rgb(44.090271%, 9.494019%, 73.101807%)" offset="0.171875"/><stop stop-opacity="1" stop-color="rgb(44.049072%, 9.890747%, 73.187256%)" offset="0.175781"/><stop stop-opacity="1" stop-color="rgb(44.009399%, 10.287476%, 73.274231%)" offset="0.179687"/><stop stop-opacity="1" stop-color="rgb(43.969727%, 10.684204%, 73.35968%)" offset="0.183594"/><stop stop-opacity="1" stop-color="rgb(43.930054%, 11.080933%, 73.446655%)" offset="0.1875"/><stop stop-opacity="1" stop-color="rgb(43.888855%, 11.476135%, 73.532104%)" offset="0.191406"/><stop stop-opacity="1" stop-color="rgb(43.849182%, 11.872864%, 73.61908%)" offset="0.195312"/><stop stop-opacity="1" stop-color="rgb(43.807983%, 12.269592%, 73.704529%)" offset="0.199219"/><stop stop-opacity="1" stop-color="rgb(43.768311%, 12.666321%, 73.789978%)" offset="0.203125"/><stop stop-opacity="1" stop-color="rgb(43.727112%, 13.063049%, 73.875427%)" offset="0.207031"/><stop stop-opacity="1" stop-color="rgb(43.687439%, 13.459778%, 73.962402%)" offset="0.210937"/><stop stop-opacity="1" stop-color="rgb(43.647766%, 13.85498%, 74.047852%)" offset="0.214844"/><stop stop-opacity="1" stop-color="rgb(43.608093%, 14.251709%, 74.134827%)" offset="0.21875"/><stop stop-opacity="1" stop-color="rgb(43.566895%, 14.648438%, 74.220276%)" offset="0.222656"/><stop stop-opacity="1" stop-color="rgb(43.527222%, 15.045166%, 74.307251%)" offset="0.226562"/><stop stop-opacity="1" stop-color="rgb(43.486023%, 15.440369%, 74.3927%)" offset="0.230469"/><stop stop-opacity="1" stop-color="rgb(43.44635%, 15.837097%, 74.479675%)" offset="0.234375"/><stop stop-opacity="1" stop-color="rgb(43.405151%, 16.233826%, 74.565125%)" offset="0.238281"/><stop stop-opacity="1" stop-color="rgb(43.365479%, 16.630554%, 74.6521%)" offset="0.242187"/><stop stop-opacity="1" stop-color="rgb(43.325806%, 17.027283%, 74.737549%)" offset="0.246094"/><stop stop-opacity="1" stop-color="rgb(43.286133%, 17.424011%, 74.824524%)" offset="0.25"/><stop stop-opacity="1" stop-color="rgb(43.244934%, 17.819214%, 74.909973%)" offset="0.253906"/><stop stop-opacity="1" stop-color="rgb(43.205261%, 18.215942%, 74.996948%)" offset="0.257812"/><stop stop-opacity="1" stop-color="rgb(43.164062%, 18.612671%, 75.082397%)" offset="0.261719"/><stop stop-opacity="1" stop-color="rgb(43.12439%, 19.009399%, 75.169373%)" offset="0.265625"/><stop stop-opacity="1" stop-color="rgb(43.083191%, 19.406128%, 75.254822%)" offset="0.269531"/><stop stop-opacity="1" stop-color="rgb(43.043518%, 19.802856%, 75.340271%)" offset="0.273437"/><stop stop-opacity="1" stop-color="rgb(43.002319%, 20.198059%, 75.42572%)" offset="0.277344"/><stop stop-opacity="1" stop-color="rgb(42.962646%, 20.594788%, 75.512695%)" offset="0.28125"/><stop stop-opacity="1" stop-color="rgb(42.922974%, 20.991516%, 75.598145%)" offset="0.285156"/><stop stop-opacity="1" stop-color="rgb(42.883301%, 21.388245%, 75.68512%)" offset="0.289062"/><stop stop-opacity="1" stop-color="rgb(42.842102%, 21.784973%, 75.770569%)" offset="0.292969"/><stop stop-opacity="1" stop-color="rgb(42.802429%, 22.181702%, 75.857544%)" offset="0.296875"/><stop stop-opacity="1" stop-color="rgb(42.76123%, 22.576904%, 75.942993%)" offset="0.300781"/><stop stop-opacity="1" stop-color="rgb(42.721558%, 22.973633%, 76.029968%)" offset="0.304687"/><stop stop-opacity="1" stop-color="rgb(42.680359%, 23.370361%, 76.115417%)" offset="0.308594"/><stop stop-opacity="1" stop-color="rgb(42.640686%, 23.76709%, 76.202393%)" offset="0.3125"/><stop stop-opacity="1" stop-color="rgb(42.601013%, 24.163818%, 76.287842%)" offset="0.316406"/><stop stop-opacity="1" stop-color="rgb(42.56134%, 24.560547%, 76.374817%)" offset="0.320312"/><stop stop-opacity="1" stop-color="rgb(42.520142%, 24.95575%, 76.460266%)" offset="0.324219"/><stop stop-opacity="1" stop-color="rgb(42.480469%, 25.352478%, 76.547241%)" offset="0.328125"/><stop stop-opacity="1" stop-color="rgb(42.43927%, 25.749207%, 76.63269%)" offset="0.332031"/><stop stop-opacity="1" stop-color="rgb(42.399597%, 26.145935%, 76.71814%)" offset="0.335937"/><stop stop-opacity="1" stop-color="rgb(42.358398%, 26.541138%, 76.803589%)" offset="0.339844"/><stop stop-opacity="1" stop-color="rgb(42.318726%, 26.937866%, 76.890564%)" offset="0.34375"/><stop stop-opacity="1" stop-color="rgb(42.279053%, 27.334595%, 76.976013%)" offset="0.347656"/><stop stop-opacity="1" stop-color="rgb(42.23938%, 27.731323%, 77.062988%)" offset="0.351562"/><stop stop-opacity="1" stop-color="rgb(42.198181%, 28.128052%, 77.148438%)" offset="0.355469"/><stop stop-opacity="1" stop-color="rgb(42.158508%, 28.52478%, 77.235413%)" offset="0.359375"/><stop stop-opacity="1" stop-color="rgb(42.11731%, 28.919983%, 77.320862%)" offset="0.363281"/><stop stop-opacity="1" stop-color="rgb(42.077637%, 29.316711%, 77.407837%)" offset="0.367187"/><stop stop-opacity="1" stop-color="rgb(42.036438%, 29.71344%, 77.493286%)" offset="0.371094"/><stop stop-opacity="1" stop-color="rgb(41.996765%, 30.110168%, 77.580261%)" offset="0.375"/><stop stop-opacity="1" stop-color="rgb(41.957092%, 30.506897%, 77.66571%)" offset="0.378906"/><stop stop-opacity="1" stop-color="rgb(41.917419%, 30.903625%, 77.752686%)" offset="0.382812"/><stop stop-opacity="1" stop-color="rgb(41.876221%, 31.298828%, 77.838135%)" offset="0.386719"/><stop stop-opacity="1" stop-color="rgb(41.836548%, 31.695557%, 77.92511%)" offset="0.390625"/><stop stop-opacity="1" stop-color="rgb(41.795349%, 32.092285%, 78.010559%)" offset="0.394531"/><stop stop-opacity="1" stop-color="rgb(41.755676%, 32.489014%, 78.097534%)" offset="0.398437"/><stop stop-opacity="1" stop-color="rgb(41.714478%, 32.885742%, 78.182983%)" offset="0.402344"/><stop stop-opacity="1" stop-color="rgb(41.674805%, 33.282471%, 78.268433%)" offset="0.40625"/><stop stop-opacity="1" stop-color="rgb(41.635132%, 33.677673%, 78.353882%)" offset="0.410156"/><stop stop-opacity="1" stop-color="rgb(41.595459%, 34.074402%, 78.440857%)" offset="0.414062"/><stop stop-opacity="1" stop-color="rgb(41.55426%, 34.47113%, 78.526306%)" offset="0.417969"/><stop stop-opacity="1" stop-color="rgb(41.514587%, 34.867859%, 78.613281%)" offset="0.421875"/><stop stop-opacity="1" stop-color="rgb(41.473389%, 35.264587%, 78.69873%)" offset="0.425781"/><stop stop-opacity="1" stop-color="rgb(41.433716%, 35.661316%, 78.785706%)" offset="0.429687"/><stop stop-opacity="1" stop-color="rgb(41.392517%, 36.056519%, 78.871155%)" offset="0.433594"/><stop stop-opacity="1" stop-color="rgb(41.352844%, 36.453247%, 78.95813%)" offset="0.4375"/><stop stop-opacity="1" stop-color="rgb(41.311646%, 36.849976%, 79.043579%)" offset="0.441406"/><stop stop-opacity="1" stop-color="rgb(41.271973%, 37.246704%, 79.130554%)" offset="0.445312"/><stop stop-opacity="1" stop-color="rgb(41.2323%, 37.641907%, 79.216003%)" offset="0.449219"/><stop stop-opacity="1" stop-color="rgb(41.192627%, 38.038635%, 79.302979%)" offset="0.453125"/><stop stop-opacity="1" stop-color="rgb(41.151428%, 38.435364%, 79.388428%)" offset="0.457031"/><stop stop-opacity="1" stop-color="rgb(41.111755%, 38.832092%, 79.475403%)" offset="0.460937"/><stop stop-opacity="1" stop-color="rgb(41.070557%, 39.228821%, 79.560852%)" offset="0.464844"/><stop stop-opacity="1" stop-color="rgb(41.030884%, 39.625549%, 79.647827%)" offset="0.46875"/><stop stop-opacity="1" stop-color="rgb(40.989685%, 40.020752%, 79.733276%)" offset="0.472656"/><stop stop-opacity="1" stop-color="rgb(40.950012%, 40.41748%, 79.818726%)" offset="0.476562"/><stop stop-opacity="1" stop-color="rgb(40.910339%, 40.814209%, 79.904175%)" offset="0.480469"/><stop stop-opacity="1" stop-color="rgb(40.870667%, 41.210938%, 79.99115%)" offset="0.484375"/><stop stop-opacity="1" stop-color="rgb(40.829468%, 41.607666%, 80.076599%)" offset="0.488281"/><stop stop-opacity="1" stop-color="rgb(40.789795%, 42.004395%, 80.163574%)" offset="0.492187"/><stop stop-opacity="1" stop-color="rgb(40.748596%, 42.399597%, 80.249023%)" offset="0.496094"/><stop stop-opacity="1" stop-color="rgb(40.708923%, 42.796326%, 80.335999%)" offset="0.5"/><stop stop-opacity="1" stop-color="rgb(40.667725%, 43.193054%, 80.421448%)" offset="0.503906"/><stop stop-opacity="1" stop-color="rgb(40.628052%, 43.589783%, 80.508423%)" offset="0.507812"/><stop stop-opacity="1" stop-color="rgb(40.588379%, 43.986511%, 80.593872%)" offset="0.511719"/><stop stop-opacity="1" stop-color="rgb(40.548706%, 44.38324%, 80.680847%)" offset="0.515625"/><stop stop-opacity="1" stop-color="rgb(40.507507%, 44.778442%, 80.766296%)" offset="0.519531"/><stop stop-opacity="1" stop-color="rgb(40.467834%, 45.175171%, 80.853271%)" offset="0.523437"/><stop stop-opacity="1" stop-color="rgb(40.426636%, 45.571899%, 80.938721%)" offset="0.527344"/><stop stop-opacity="1" stop-color="rgb(40.386963%, 45.968628%, 81.025696%)" offset="0.53125"/><stop stop-opacity="1" stop-color="rgb(40.345764%, 46.365356%, 81.111145%)" offset="0.535156"/><stop stop-opacity="1" stop-color="rgb(40.306091%, 46.762085%, 81.19812%)" offset="0.539062"/><stop stop-opacity="1" stop-color="rgb(40.266418%, 47.157288%, 81.283569%)" offset="0.542969"/><stop stop-opacity="1" stop-color="rgb(40.226746%, 47.554016%, 81.369019%)" offset="0.546875"/><stop stop-opacity="1" stop-color="rgb(40.185547%, 47.950745%, 81.454468%)" offset="0.550781"/><stop stop-opacity="1" stop-color="rgb(40.145874%, 48.347473%, 81.541443%)" offset="0.554688"/><stop stop-opacity="1" stop-color="rgb(40.104675%, 48.742676%, 81.626892%)" offset="0.558594"/><stop stop-opacity="1" stop-color="rgb(40.065002%, 49.139404%, 81.713867%)" offset="0.5625"/><stop stop-opacity="1" stop-color="rgb(40.023804%, 49.536133%, 81.799316%)" offset="0.566406"/><stop stop-opacity="1" stop-color="rgb(39.984131%, 49.932861%, 81.886292%)" offset="0.570312"/><stop stop-opacity="1" stop-color="rgb(39.944458%, 50.32959%, 81.971741%)" offset="0.574219"/><stop stop-opacity="1" stop-color="rgb(39.904785%, 50.726318%, 82.058716%)" offset="0.578125"/><stop stop-opacity="1" stop-color="rgb(39.863586%, 51.121521%, 82.144165%)" offset="0.582031"/><stop stop-opacity="1" stop-color="rgb(39.823914%, 51.51825%, 82.23114%)" offset="0.585938"/><stop stop-opacity="1" stop-color="rgb(39.782715%, 51.914978%, 82.316589%)" offset="0.589844"/><stop stop-opacity="1" stop-color="rgb(39.743042%, 52.311707%, 82.403564%)" offset="0.59375"/><stop stop-opacity="1" stop-color="rgb(39.701843%, 52.708435%, 82.489014%)" offset="0.597656"/><stop stop-opacity="1" stop-color="rgb(39.66217%, 53.105164%, 82.575989%)" offset="0.601562"/><stop stop-opacity="1" stop-color="rgb(39.620972%, 53.500366%, 82.661438%)" offset="0.605469"/><stop stop-opacity="1" stop-color="rgb(39.581299%, 53.897095%, 82.746887%)" offset="0.609375"/><stop stop-opacity="1" stop-color="rgb(39.541626%, 54.293823%, 82.832336%)" offset="0.613281"/><stop stop-opacity="1" stop-color="rgb(39.501953%, 54.690552%, 82.919312%)" offset="0.617188"/><stop stop-opacity="1" stop-color="rgb(39.460754%, 55.08728%, 83.004761%)" offset="0.621094"/><stop stop-opacity="1" stop-color="rgb(39.421082%, 55.484009%, 83.091736%)" offset="0.625"/><stop stop-opacity="1" stop-color="rgb(39.379883%, 55.879211%, 83.177185%)" offset="0.628906"/><stop stop-opacity="1" stop-color="rgb(39.34021%, 56.27594%, 83.26416%)" offset="0.632812"/><stop stop-opacity="1" stop-color="rgb(39.299011%, 56.672668%, 83.349609%)" offset="0.636719"/><stop stop-opacity="1" stop-color="rgb(39.259338%, 57.069397%, 83.436584%)" offset="0.640625"/><stop stop-opacity="1" stop-color="rgb(39.219666%, 57.466125%, 83.522034%)" offset="0.644531"/><stop stop-opacity="1" stop-color="rgb(39.179993%, 57.862854%, 83.609009%)" offset="0.648438"/><stop stop-opacity="1" stop-color="rgb(39.138794%, 58.258057%, 83.694458%)" offset="0.652344"/><stop stop-opacity="1" stop-color="rgb(39.099121%, 58.654785%, 83.781433%)" offset="0.65625"/><stop stop-opacity="1" stop-color="rgb(39.057922%, 59.051514%, 83.866882%)" offset="0.660156"/><stop stop-opacity="1" stop-color="rgb(39.01825%, 59.448242%, 83.953857%)" offset="0.664062"/><stop stop-opacity="1" stop-color="rgb(38.977051%, 59.843445%, 84.039307%)" offset="0.667969"/><stop stop-opacity="1" stop-color="rgb(38.937378%, 60.240173%, 84.126282%)" offset="0.671875"/><stop stop-opacity="1" stop-color="rgb(38.897705%, 60.636902%, 84.211731%)" offset="0.675781"/><stop stop-opacity="1" stop-color="rgb(38.858032%, 61.03363%, 84.29718%)" offset="0.679688"/><stop stop-opacity="1" stop-color="rgb(38.816833%, 61.430359%, 84.382629%)" offset="0.683594"/><stop stop-opacity="1" stop-color="rgb(38.777161%, 61.827087%, 84.469604%)" offset="0.6875"/><stop stop-opacity="1" stop-color="rgb(38.735962%, 62.22229%, 84.555054%)" offset="0.691406"/><stop stop-opacity="1" stop-color="rgb(38.696289%, 62.619019%, 84.642029%)" offset="0.695312"/><stop stop-opacity="1" stop-color="rgb(38.65509%, 63.015747%, 84.727478%)" offset="0.699219"/><stop stop-opacity="1" stop-color="rgb(38.615417%, 63.412476%, 84.814453%)" offset="0.703125"/><stop stop-opacity="1" stop-color="rgb(38.575745%, 63.809204%, 84.899902%)" offset="0.707031"/><stop stop-opacity="1" stop-color="rgb(38.536072%, 64.205933%, 84.986877%)" offset="0.710938"/><stop stop-opacity="1" stop-color="rgb(38.494873%, 64.601135%, 85.072327%)" offset="0.714844"/><stop stop-opacity="1" stop-color="rgb(38.4552%, 64.997864%, 85.159302%)" offset="0.71875"/><stop stop-opacity="1" stop-color="rgb(38.414001%, 65.394592%, 85.244751%)" offset="0.722656"/><stop stop-opacity="1" stop-color="rgb(38.374329%, 65.791321%, 85.331726%)" offset="0.726562"/><stop stop-opacity="1" stop-color="rgb(38.33313%, 66.188049%, 85.417175%)" offset="0.730469"/><stop stop-opacity="1" stop-color="rgb(38.293457%, 66.584778%, 85.50415%)" offset="0.734375"/><stop stop-opacity="1" stop-color="rgb(38.253784%, 66.97998%, 85.5896%)" offset="0.738281"/><stop stop-opacity="1" stop-color="rgb(38.214111%, 67.376709%, 85.676575%)" offset="0.742188"/><stop stop-opacity="1" stop-color="rgb(38.172913%, 67.773438%, 85.762024%)" offset="0.746094"/><stop stop-opacity="1" stop-color="rgb(38.13324%, 68.170166%, 85.847473%)" offset="0.75"/><stop stop-opacity="1" stop-color="rgb(38.092041%, 68.566895%, 85.932922%)" offset="0.753906"/><stop stop-opacity="1" stop-color="rgb(38.052368%, 68.963623%, 86.019897%)" offset="0.757812"/><stop stop-opacity="1" stop-color="rgb(38.011169%, 69.358826%, 86.105347%)" offset="0.761719"/><stop stop-opacity="1" stop-color="rgb(37.971497%, 69.755554%, 86.192322%)" offset="0.765625"/><stop stop-opacity="1" stop-color="rgb(37.930298%, 70.152283%, 86.277771%)" offset="0.769531"/><stop stop-opacity="1" stop-color="rgb(37.890625%, 70.549011%, 86.364746%)" offset="0.773438"/><stop stop-opacity="1" stop-color="rgb(37.850952%, 70.944214%, 86.450195%)" offset="0.777344"/><stop stop-opacity="1" stop-color="rgb(37.811279%, 71.340942%, 86.53717%)" offset="0.78125"/><stop stop-opacity="1" stop-color="rgb(37.770081%, 71.737671%, 86.62262%)" offset="0.785156"/><stop stop-opacity="1" stop-color="rgb(37.730408%, 72.134399%, 86.709595%)" offset="0.789062"/><stop stop-opacity="1" stop-color="rgb(37.689209%, 72.531128%, 86.795044%)" offset="0.792969"/><stop stop-opacity="1" stop-color="rgb(37.649536%, 72.927856%, 86.882019%)" offset="0.796875"/><stop stop-opacity="1" stop-color="rgb(37.608337%, 73.323059%, 86.967468%)" offset="0.800781"/><stop stop-opacity="1" stop-color="rgb(37.568665%, 73.719788%, 87.054443%)" offset="0.804688"/><stop stop-opacity="1" stop-color="rgb(37.528992%, 74.116516%, 87.139893%)" offset="0.808594"/><stop stop-opacity="1" stop-color="rgb(37.489319%, 74.513245%, 87.226868%)" offset="0.8125"/><stop stop-opacity="1" stop-color="rgb(37.44812%, 74.909973%, 87.312317%)" offset="0.816406"/><stop stop-opacity="1" stop-color="rgb(37.408447%, 75.306702%, 87.397766%)" offset="0.820312"/><stop stop-opacity="1" stop-color="rgb(37.367249%, 75.701904%, 87.483215%)" offset="0.824219"/><stop stop-opacity="1" stop-color="rgb(37.327576%, 76.098633%, 87.57019%)" offset="0.828125"/><stop stop-opacity="1" stop-color="rgb(37.286377%, 76.495361%, 87.65564%)" offset="0.832031"/><stop stop-opacity="1" stop-color="rgb(37.246704%, 76.89209%, 87.742615%)" offset="0.835938"/><stop stop-opacity="1" stop-color="rgb(37.207031%, 77.288818%, 87.828064%)" offset="0.839844"/><stop stop-opacity="1" stop-color="rgb(37.167358%, 77.685547%, 87.915039%)" offset="0.84375"/><stop stop-opacity="1" stop-color="rgb(37.12616%, 78.08075%, 88.000488%)" offset="0.847656"/><stop stop-opacity="1" stop-color="rgb(37.086487%, 78.477478%, 88.087463%)" offset="0.851562"/><stop stop-opacity="1" stop-color="rgb(37.045288%, 78.874207%, 88.172913%)" offset="0.855469"/><stop stop-opacity="1" stop-color="rgb(37.005615%, 79.270935%, 88.259888%)" offset="0.859375"/><stop stop-opacity="1" stop-color="rgb(36.964417%, 79.667664%, 88.345337%)" offset="0.863281"/><stop stop-opacity="1" stop-color="rgb(36.924744%, 80.064392%, 88.432312%)" offset="0.867187"/><stop stop-opacity="1" stop-color="rgb(36.885071%, 80.459595%, 88.517761%)" offset="0.871094"/><stop stop-opacity="1" stop-color="rgb(36.845398%, 80.856323%, 88.604736%)" offset="0.875"/><stop stop-opacity="1" stop-color="rgb(36.804199%, 81.253052%, 88.690186%)" offset="0.878906"/><stop stop-opacity="1" stop-color="rgb(36.764526%, 81.64978%, 88.775635%)" offset="0.882812"/><stop stop-opacity="1" stop-color="rgb(36.723328%, 82.044983%, 88.861084%)" offset="0.886719"/><stop stop-opacity="1" stop-color="rgb(36.683655%, 82.441711%, 88.948059%)" offset="0.890625"/><stop stop-opacity="1" stop-color="rgb(36.642456%, 82.83844%, 89.033508%)" offset="0.894531"/><stop stop-opacity="1" stop-color="rgb(36.602783%, 83.235168%, 89.120483%)" offset="0.898438"/><stop stop-opacity="1" stop-color="rgb(36.56311%, 83.631897%, 89.205933%)" offset="0.902344"/><stop stop-opacity="1" stop-color="rgb(36.523438%, 84.028625%, 89.292908%)" offset="0.90625"/><stop stop-opacity="1" stop-color="rgb(36.482239%, 84.423828%, 89.378357%)" offset="0.910156"/><stop stop-opacity="1" stop-color="rgb(36.442566%, 84.820557%, 89.465332%)" offset="0.914062"/><stop stop-opacity="1" stop-color="rgb(36.401367%, 85.217285%, 89.550781%)" offset="0.917969"/><stop stop-opacity="1" stop-color="rgb(36.361694%, 85.614014%, 89.637756%)" offset="0.921875"/><stop stop-opacity="1" stop-color="rgb(36.320496%, 86.010742%, 89.723206%)" offset="0.925781"/><stop stop-opacity="1" stop-color="rgb(36.280823%, 86.407471%, 89.810181%)" offset="0.929687"/><stop stop-opacity="1" stop-color="rgb(36.239624%, 86.802673%, 89.89563%)" offset="0.933594"/><stop stop-opacity="1" stop-color="rgb(36.199951%, 87.199402%, 89.982605%)" offset="0.9375"/><stop stop-opacity="1" stop-color="rgb(36.160278%, 87.59613%, 90.068054%)" offset="0.941406"/><stop stop-opacity="1" stop-color="rgb(36.120605%, 87.992859%, 90.155029%)" offset="0.945312"/><stop stop-opacity="1" stop-color="rgb(36.109924%, 88.095093%, 90.176392%)" offset="0.953125"/><stop stop-opacity="1" stop-color="rgb(36.099243%, 88.198853%, 90.19928%)" offset="0.96875"/><stop stop-opacity="1" stop-color="rgb(36.099243%, 88.198853%, 90.19928%)" offset="0.992733"/><stop stop-opacity="1" stop-color="rgb(36.099243%, 88.198853%, 90.19928%)" offset="1"/></linearGradient></defs><g clip-path="url(#454fe59c77)"><g clip-path="url(#1cade34a21)"><path fill="url(#ce3a6537b0)" d="M 30.402344 60.191406 L 30.402344 314.527344 L 344.652344 314.527344 L 344.652344 60.191406 Z M 30.402344 60.191406 " fill-rule="nonzero"/></g></g></svg>